<?xml version="1.0" encoding="UTF-8"?>
<svg width="38px" height="19px" viewBox="0 0 194 90" version="1.1" xmlns="http://www.w3.org/2000/svg" xmlns:xlink="http://www.w3.org/1999/xlink">
    <title>GABAmango</title>
    <g id="site-assets" stroke="none" stroke-width="1" fill="none" fill-rule="evenodd">
        <g id="Artboard" transform="translate(-926.000000, -270.000000)" fill="#0065F2" fill-rule="nonzero">
            <path d="M946.5,360 C953.166667,360 958.25,358.104167 961.75,354.3125 C965.25,350.520833 967,345.083333 967,338 L967,338 L967,309.375 L947.125,309.375 L947.125,321.875 L954,321.875 L954,339 C954,344.666667 951.625,347.5 946.875,347.5 C942.125,347.5 939.75,344.666667 939.75,339 L939.75,339 L939.75,291.125 C939.75,285.375 942.125,282.5 946.875,282.5 C951.625,282.5 954,285.375 954,291.125 L954,291.125 L954,299.5 L967,299.5 L967,292 C967,284.916667 965.25,279.479167 961.75,275.6875 C958.25,271.895833 953.166667,270 946.5,270 C939.833333,270 934.75,271.895833 931.25,275.6875 C927.75,279.479167 926,284.916667 926,292 L926,292 L926,338 C926,345.083333 927.75,350.520833 931.25,354.3125 C934.75,358.104167 939.833333,360 946.5,360 Z M985,358.75 L987.5,341.625 L1003.125,341.625 L1003.125,341.375 L1005.625,358.75 L1019.375,358.75 L1005.125,271.25 L986.5,271.25 L972.25,358.75 L985,358.75 Z M1001.5,329.75 L989.125,329.75 L995.125,286.5 L995.375,286.5 L1001.5,329.75 Z M1047.625,358.75 C1054.45833,358.75 1059.64583,356.979167 1063.1875,353.4375 C1066.72917,349.895833 1068.5,344.75 1068.5,338 L1068.5,338 L1068.5,330.5 C1068.5,320.666667 1065.08333,314.583333 1058.25,312.25 L1058.25,312.25 L1058.25,312 C1061.25,310.75 1063.47917,308.708333 1064.9375,305.875 C1066.39583,303.041667 1067.125,299.375 1067.125,294.875 L1067.125,294.875 L1067.125,291.375 C1067.125,284.541667 1065.5,279.479167 1062.25,276.1875 C1059,272.895833 1053.83333,271.25 1046.75,271.25 L1046.75,271.25 L1026,271.25 L1026,358.75 L1047.625,358.75 Z M1045.125,306.875 L1039.75,306.875 L1039.75,283.75 L1046.375,283.75 C1048.79167,283.75 1050.5625,284.458333 1051.6875,285.875 C1052.8125,287.291667 1053.375,289.583333 1053.375,292.75 L1053.375,292.75 L1053.375,297.625 C1053.375,300.958333 1052.6875,303.333333 1051.3125,304.75 C1049.9375,306.166667 1047.875,306.875 1045.125,306.875 L1045.125,306.875 Z M1047.625,346.25 L1039.75,346.25 L1039.75,319.375 L1045.875,319.375 C1049.04167,319.375 1051.3125,320.145833 1052.6875,321.6875 C1054.0625,323.229167 1054.75,326 1054.75,330 L1054.75,330 L1054.75,337.625 C1054.75,340.791667 1054.16667,343.020833 1053,344.3125 C1051.83333,345.604167 1050.04167,346.25 1047.625,346.25 L1047.625,346.25 Z M1085.625,358.75 L1088.125,341.625 L1103.75,341.625 L1103.75,341.375 L1106.25,358.75 L1120,358.75 L1105.75,271.25 L1087.125,271.25 L1072.875,358.75 L1085.625,358.75 Z M1102.125,329.75 L1089.75,329.75 L1095.75,286.5 L1096,286.5 L1102.125,329.75 Z" id="GABAmango"></path>
        </g>
    </g>
</svg>