<?xml version="1.0" encoding="UTF-8"?>
<svg width="57px" height="66px" viewBox="0 0 57 66" version="1.1" xmlns="http://www.w3.org/2000/svg" xmlns:xlink="http://www.w3.org/1999/xlink">
    <title>Icons/24px/Bag</title>
    <g id="user-profile-mockups" stroke="none" stroke-width="1" fill="none" fill-rule="evenodd">
        <g id="Mockup---Hot-Private-Profile---Volunteer" transform="translate(-1074.000000, -2330.000000)" fill="#5AB88D">
            <g id="LOCKER" transform="translate(0.000000, 1891.000000)">
                <g id="marketplace-card" transform="translate(922.000000, 424.000000)">
                    <g id="Icons/24px/Bag" transform="translate(152.000000, 15.000000)">
                        <path d="M28.1071827,0 C35.136961,0 40.9058134,5.76885238 40.9058134,12.7986307 L40.7330385,15.151027 L53.3734634,15.312309 L53.5314032,17.681566 L56.0565423,63.1340851 L56.0418887,66 L0,65.8170794 L0.157791065,63.1346469 L2.68307889,17.679657 L3.01329428,15.151027 L15.308552,15.3238019 L15.308552,12.7986307 C15.308552,5.76885238 21.0774044,0 28.1071827,0 Z M28.1071827,5.39589207 C24.0202889,5.39589207 20.7044441,8.71173687 20.7044441,12.7986307 L20.5316692,15.151027 L35.5099213,15.3238019 L35.5099213,12.7986307 C35.5099213,8.71173687 32.1940765,5.39589207 28.1071827,5.39589207 Z M7.91083355,20.546919 L5.53846545,60.6041079 L50.5033829,60.7863173 L48.4663752,20.546919 L40.9058134,20.3741442 L40.7330385,28.1224325 L35.5099213,27.9496577 L35.6826962,20.546919 L20.7044441,20.3741442 L20.5316692,28.1224325 L15.308552,27.9496577 L15.4813269,20.546919 L7.91083355,20.546919 Z" id="Icon"></path>
                    </g>
                </g>
            </g>
        </g>
    </g>
</svg>