<?xml version="1.0" encoding="UTF-8"?>
<svg width="43px" height="20px" viewBox="0 0 43 20" version="1.1" xmlns="http://www.w3.org/2000/svg" xmlns:xlink="http://www.w3.org/1999/xlink">
    <title>GABA</title>
    <g id="user-profile-mockups" stroke="none" stroke-width="1" fill="none" fill-rule="evenodd">
        <g id="Mockup---Hot-Private-Profile---Volunteer" transform="translate(-96.000000, -20.000000)" fill="#EEAA35" fill-rule="nonzero">
            <g id="Menu-/-Menu-6">
                <path d="M100.555556,40 C102.037037,40 103.166667,39.5787037 103.944444,38.7361111 C104.722222,37.8935185 105.111111,36.6851852 105.111111,35.1111111 L105.111111,35.1111111 L105.111111,28.75 L100.694444,28.75 L100.694444,31.5277778 L102.222222,31.5277778 L102.222222,35.3333333 C102.222222,36.5925926 101.694444,37.2222222 100.638889,37.2222222 C99.5833333,37.2222222 99.0555556,36.5925926 99.0555556,35.3333333 L99.0555556,35.3333333 L99.0555556,24.6944444 C99.0555556,23.4166667 99.5833333,22.7777778 100.638889,22.7777778 C101.694444,22.7777778 102.222222,23.4166667 102.222222,24.6944444 L102.222222,24.6944444 L102.222222,26.5555556 L105.111111,26.5555556 L105.111111,24.8888889 C105.111111,23.3148148 104.722222,22.1064815 103.944444,21.2638889 C103.166667,20.4212963 102.037037,20 100.555556,20 C99.0740741,20 97.9444444,20.4212963 97.1666667,21.2638889 C96.3888889,22.1064815 96,23.3148148 96,24.8888889 L96,24.8888889 L96,35.1111111 C96,36.6851852 96.3888889,37.8935185 97.1666667,38.7361111 C97.9444444,39.5787037 99.0740741,40 100.555556,40 Z M108.763889,39.7222222 L109.319444,35.9166667 L112.791667,35.9166667 L112.791667,35.8611111 L113.347222,39.7222222 L116.402778,39.7222222 L113.236111,20.2777778 L109.097222,20.2777778 L105.930556,39.7222222 L108.763889,39.7222222 Z M112.430556,33.2777778 L109.680556,33.2777778 L111.013889,23.6666667 L111.069444,23.6666667 L112.430556,33.2777778 Z M122.333333,39.7222222 C123.851852,39.7222222 125.00463,39.3287037 125.791667,38.5416667 C126.578704,37.7546296 126.972222,36.6111111 126.972222,35.1111111 L126.972222,35.1111111 L126.972222,33.4444444 C126.972222,31.2592593 126.212963,29.9074074 124.694444,29.3888889 L124.694444,29.3888889 L124.694444,29.3333333 C125.361111,29.0555556 125.856481,28.6018519 126.180556,27.9722222 C126.50463,27.3425926 126.666667,26.5277778 126.666667,25.5277778 L126.666667,25.5277778 L126.666667,24.75 C126.666667,23.2314815 126.305556,22.1064815 125.583333,21.375 C124.861111,20.6435185 123.712963,20.2777778 122.138889,20.2777778 L122.138889,20.2777778 L117.527778,20.2777778 L117.527778,39.7222222 L122.333333,39.7222222 Z M121.777778,28.1944444 L120.583333,28.1944444 L120.583333,23.0555556 L122.055556,23.0555556 C122.592593,23.0555556 122.986111,23.212963 123.236111,23.5277778 C123.486111,23.8425926 123.611111,24.3518519 123.611111,25.0555556 L123.611111,25.0555556 L123.611111,26.1388889 C123.611111,26.8796296 123.458333,27.4074074 123.152778,27.7222222 C122.847222,28.037037 122.388889,28.1944444 121.777778,28.1944444 L121.777778,28.1944444 Z M122.333333,36.9444444 L120.583333,36.9444444 L120.583333,30.9722222 L121.944444,30.9722222 C122.648148,30.9722222 123.152778,31.1435185 123.458333,31.4861111 C123.763889,31.8287037 123.916667,32.4444444 123.916667,33.3333333 L123.916667,33.3333333 L123.916667,35.0277778 C123.916667,35.7314815 123.787037,36.2268519 123.527778,36.5138889 C123.268519,36.8009259 122.87037,36.9444444 122.333333,36.9444444 L122.333333,36.9444444 Z M130.430556,39.7222222 L130.986111,35.9166667 L134.458333,35.9166667 L134.458333,35.8611111 L135.013889,39.7222222 L138.069444,39.7222222 L134.902778,20.2777778 L130.763889,20.2777778 L127.597222,39.7222222 L130.430556,39.7222222 Z M134.097222,33.2777778 L131.347222,33.2777778 L132.680556,23.6666667 L132.736111,23.6666667 L134.097222,33.2777778 Z" id="GABA"></path>
            </g>
        </g>
    </g>
</svg>