<?xml version="1.0" encoding="UTF-8"?>
<svg width="18px" height="20px" viewBox="0 0 18 20" version="1.1" xmlns="http://www.w3.org/2000/svg" xmlns:xlink="http://www.w3.org/1999/xlink">
    <title>Icon</title>
    <g id="user-profile-mockups" stroke="none" stroke-width="1" fill="none" fill-rule="evenodd">
        <g id="Mockup---Hot-Private-Profile---Volunteer" transform="translate(-1325.000000, -20.000000)" fill="#111741">
            <g id="Menu---R" transform="translate(1296.000000, 0.000000)">
                <g id="Menu-#2" transform="translate(29.000000, 17.000000)">
                    <g id="Menu" transform="translate(0.000000, 0.750000)">
                        <g id="Icon" transform="translate(0.000000, 3.250000)">
                            <path d="M8.68636364,-1.0658141e-14 C11.5680266,-1.0658141e-14 13.9181818,2.35015522 13.9181818,5.23181818 C13.9181818,7.00787179 13.0254473,8.58202584 11.6657602,9.52849845 C14.9880067,10.7507482 17.3617958,13.9589347 17.3227273,17.7363636 L15.5454545,17.6863636 C15.5454545,13.8883382 12.484389,10.8272727 8.68636364,10.8272727 C4.88833824,10.8272727 1.82727273,13.8883382 1.77727273,17.7363636 L2.84217094e-14,17.6863636 C2.84217094e-14,13.9480592 2.38225927,10.748454 5.70629528,9.52803074 C4.34698591,8.58150731 3.45454545,7.00757927 3.45454545,5.23181818 C3.45454545,2.35015522 5.80470067,-1.0658141e-14 8.68636364,-1.0658141e-14 Z M8.68636364,1.82727273 C6.79778469,1.82727273 5.28181818,3.34323924 5.28181818,5.23181818 C5.28181818,7.12039713 6.79778469,8.63636364 8.68636364,8.63636364 C10.5749426,8.63636364 12.0909091,7.12039713 12.0909091,5.23181818 C12.0909091,3.34323924 10.5749426,1.82727273 8.68636364,1.82727273 Z"></path>
                        </g>
                    </g>
                </g>
            </g>
        </g>
    </g>
</svg>