<?xml version="1.0" encoding="UTF-8"?>
<svg width="19px" height="19px" viewBox="0 0 19 19" version="1.1" xmlns="http://www.w3.org/2000/svg" xmlns:xlink="http://www.w3.org/1999/xlink">
    <title>Icon</title>
    <g id="user-profile-mockups" stroke="none" stroke-width="1" fill="none" fill-rule="evenodd" fill-opacity="0.4">
        <g id="Mockup---Hot-Private-Profile---Volunteer" transform="translate(-681.000000, -21.000000)" fill="#111742">
            <g id="Input" transform="translate(545.000000, 9.000000)">
                <path d="M143.2,12 C147.17645,12 150.4,15.2235498 150.4,19.2 C150.4,20.8276183 149.859932,22.3290971 148.949223,23.5350093 L154.09549,28.6812769 L152.681277,30.0954905 L147.535009,24.9492228 C146.329097,25.859932 144.827618,26.4 143.2,26.4 C139.22355,26.4 136,23.1764502 136,19.2 C136,15.2235498 139.22355,12 143.2,12 Z M143.2,14 C140.328119,14 138,16.3281193 138,19.2 C138,22.0718807 140.328119,24.4 143.2,24.4 C146.071881,24.4 148.4,22.0718807 148.4,19.2 C148.4,16.3281193 146.071881,14 143.2,14 Z" id="Icon"></path>
            </g>
        </g>
    </g>
</svg>